<svg id="Layer_1" data-name="Layer 1" xmlns="http://www.w3.org/2000/svg" viewBox="0 0 189.17 284.35"><defs><style>.cls-1{fill:#e63329;}</style></defs><title>sf_logo</title><path class="cls-1" d="M353.24,268c-2.27-.18-4.53-.49-6.8-.52-10.07-.12-18.55,3.05-24.06,12-3.51,5.72-3.13,11.51,0,17.25,3.43,6.37,8.52,11.19,14.42,15.23a40.26,40.26,0,0,0,14.71,6.68,14,14,0,0,0,7.17-.25c4.54-1.46,7.47-5.45,7.74-10.77.14-2.65,0-5.31,0-8.08.93.41,2.11.85,3.22,1.44,6.36,3.36,11.16,8.42,15.28,14.19a84.45,84.45,0,0,1,13.75,32.48,90,90,0,0,1,1.91,19.9,96.46,96.46,0,0,1-16.08,52c-8.33,12.78-18.56,23.72-31.53,31.94a88.62,88.62,0,0,1-36.68,13.12,89.78,89.78,0,0,1-17.49.77c-5.18-.36-10,1-14.74,2.81-7.74,2.92-14.29,7.73-20.39,13.18a323.58,323.58,0,0,0-26,26.74c-8.63,9.71-17,19.64-25.48,29.48-.16.18-.29.37-.44.56l-.29-.12v-1.56q0-70.44,0-140.88A139.62,139.62,0,0,1,212,381c.93-8.64,3.58-16.73,9.28-23.52,6.09-7.24,14.13-11.17,23.22-13.1a44.63,44.63,0,0,1,22.39,1l1.17.4c-.47.24-.76.41-1.07.54a39.62,39.62,0,0,0-11,6.67c-5,4.48-6.09,10.18-3.16,16.21A21.47,21.47,0,0,0,266,380.29c10.14,3.38,19.9,2.54,28.75-3.74,6.34-4.5,9.69-10.74,9.2-18.68a25,25,0,0,0-6.47-14.9c-2.69-3.12-5.77-5.91-8.7-8.83-7.55-7.55-14.26-15.71-18.26-25.76-5.89-14.77-2.76-28.52,8.91-39.34,7.22-6.69,15.43-11.66,25.1-13.93,10.68-2.5,21.05-1.21,31.18,2.7A68.8,68.8,0,0,1,352.18,267c.33.25.66.52,1,.79C353.21,267.79,353.21,267.9,353.24,268Z" transform="translate(-211.41 -253.83)"/></svg>